# xmcd CD database file
#
# Track frame offsets:
#	150
#	19212
#	39802
#
# Disc length: 783 seconds
#
# Revision: 1
# Processed by: cddbd v1.5PL3 Copyright (c) Steve Scherf et al.
# Submitted via: CDex 1.51
#
DISCID=17030d03
DTITLE=Kirari - Last Piece
DYEAR=1999
DGENRE=JPop
TTITLE0=Last Piece
TTITLE1=Make Me Crazy
TTITLE2=Last Piece (TV mix)
EXTD=YEAR: 1999
EXTT0=
EXTT1=
EXTT2=
PLAYORDER=
